<svg width="148" height="40" viewBox="0 0 148 40" fill="none" xmlns="http://www.w3.org/2000/svg">
<path d="M0.931328 32L7.48946 7.9993H12.8458L19.404 32H15.2837L13.4295 24.6178L15.5927 26.1286H4.77693L6.87142 24.6178L5.05162 32H0.931328ZM6.87142 24.4805L5.53232 22.6607H14.803L13.4639 24.4805L9.85863 9.9221L12.0561 11.6732H8.27918L10.4767 9.9221L6.87142 24.4805ZM26.104 32L19.5802 7.9993H23.8035L28.7135 28.3947H28.9195L33.8296 7.9993H38.0185L31.5291 32H26.104ZM38.1508 32L44.7089 7.9993H50.0653L56.6234 32H52.5031L50.649 24.6178L52.8121 26.1286H41.9964L44.0909 24.6178L42.2711 32H38.1508ZM44.0909 24.4805L42.7518 22.6607H52.0224L50.6833 24.4805L47.0781 9.9221L49.2756 11.6732H45.4986L47.6961 9.9221L44.0909 24.4805Z" fill="white"/>
<path d="M65.5553 32.4807C64.5481 32.4807 63.5752 32.3662 62.6367 32.1373C61.7211 31.9313 60.897 31.6795 60.1646 31.382C59.4321 31.0844 58.8598 30.8326 58.4478 30.6266C58.0357 30.3977 57.8297 30.2832 57.8297 30.2832C57.8297 30.2832 57.8869 30.123 58.0014 29.8025C58.1159 29.482 58.2417 29.1158 58.3791 28.7038C58.5393 28.2688 58.6767 27.9026 58.7911 27.605C58.9285 27.2846 58.9971 27.1243 58.9971 27.1243C58.9971 27.1243 59.2032 27.2159 59.6152 27.399C60.0272 27.5821 60.5766 27.7881 61.2633 28.0171C61.9729 28.246 62.7512 28.452 63.5981 28.6351C64.468 28.8182 65.3493 28.9098 66.242 28.9098C66.7685 28.9098 67.1805 28.864 67.4781 28.7724C67.7756 28.6809 67.9931 28.5893 68.1304 28.4978C68.4967 28.246 68.7714 27.8912 68.9545 27.4333C69.1605 26.9755 69.2635 26.3575 69.2635 25.5792C69.2635 24.8467 69.0575 24.2401 68.6455 23.7594C68.2563 23.2558 67.7299 22.8209 67.066 22.4547C66.4022 22.0655 65.6812 21.7107 64.9029 21.3902C64.0788 21.024 63.2777 20.6463 62.4994 20.2572C61.7211 19.868 61.0229 19.4217 60.4049 18.9181C59.8097 18.3916 59.329 17.7392 58.9628 16.9609C58.6194 16.1827 58.4478 15.2213 58.4478 14.0767C58.4478 12.8406 58.7339 11.7419 59.3062 10.7805C59.9013 9.7962 60.7712 9.01793 61.9157 8.44566C63.0602 7.85051 64.4794 7.55293 66.1733 7.55293C66.9745 7.55293 67.7413 7.59872 68.4738 7.69028C69.2292 7.78184 69.9045 7.88485 70.4996 7.9993C71.1177 8.11375 71.5984 8.2282 71.9417 8.34266C72.308 8.43422 72.4911 8.48 72.4911 8.48L71.8387 11.7762C71.8387 11.7762 71.6441 11.7419 71.255 11.6732C70.8888 11.6046 70.3852 11.5244 69.7442 11.4329C69.1262 11.3184 68.4509 11.2269 67.7184 11.1582C66.9859 11.0895 66.2649 11.0552 65.5553 11.0552C65.0517 11.0552 64.6511 11.0895 64.3535 11.1582C64.0559 11.2269 63.7927 11.3413 63.5638 11.5015C63.3349 11.6389 63.106 11.9021 62.8771 12.2913C62.6711 12.6575 62.5681 13.1954 62.5681 13.9051C62.5681 14.6147 62.7741 15.2213 63.1861 15.7248C63.5981 16.2055 64.1361 16.6176 64.7999 16.9609C65.4866 17.3043 66.2191 17.6362 66.9974 17.9567C67.707 18.2771 68.4395 18.6319 69.1949 19.0211C69.9502 19.3873 70.637 19.8337 71.255 20.3602C71.8959 20.8638 72.411 21.5161 72.8001 22.3173C73.1893 23.1185 73.3838 24.1028 73.3838 25.2702C73.3838 26.7123 73.0519 27.9713 72.3881 29.0471C71.7472 30.123 70.8315 30.9699 69.6412 31.588C68.4738 32.1831 67.1118 32.4807 65.5553 32.4807ZM86.7091 32.4807C85.4272 32.4807 84.214 32.2976 83.0695 31.9313C81.9249 31.5651 80.9063 30.9241 80.0136 30.0085C79.1437 29.0929 78.457 27.8225 77.9534 26.1973C77.4727 24.572 77.2324 22.489 77.2324 19.9481C77.2324 17.4302 77.4727 15.37 77.9534 13.7677C78.457 12.1425 79.1437 10.8835 80.0136 9.99077C80.9063 9.07515 81.9249 8.44566 83.0695 8.10231C84.214 7.73606 85.4272 7.55293 86.7091 7.55293C88.0138 7.55293 89.227 7.73606 90.3486 8.10231C91.4932 8.44566 92.5003 9.07515 93.3702 9.99077C94.2629 10.8835 94.9496 12.1425 95.4303 13.7677C95.9339 15.37 96.1857 17.4302 96.1857 19.9481C96.1857 22.489 95.9339 24.572 95.4303 26.1973C94.9496 27.8225 94.2629 29.0929 93.3702 30.0085C92.5003 30.9241 91.4932 31.5651 90.3486 31.9313C89.227 32.2976 88.0138 32.4807 86.7091 32.4807ZM86.7091 28.9098C87.6247 28.9098 88.4029 28.8068 89.0439 28.6008C89.7077 28.3947 90.2571 27.9827 90.692 27.3647C91.1269 26.7466 91.4474 25.8539 91.6534 24.6865C91.8594 23.5191 91.9624 21.974 91.9624 20.0512C91.9624 18.1055 91.8594 16.5489 91.6534 15.3815C91.4703 14.1912 91.1613 13.287 90.7263 12.669C90.3143 12.0509 89.7649 11.6389 89.0782 11.4329C88.4144 11.2269 87.6247 11.1239 86.7091 11.1239C85.7705 11.1239 84.9694 11.2269 84.3055 11.4329C83.6417 11.6389 83.0923 12.0509 82.6574 12.669C82.2454 13.287 81.9364 14.1912 81.7304 15.3815C81.5244 16.5489 81.4213 18.1055 81.4213 20.0512C81.4213 21.974 81.5244 23.5191 81.7304 24.6865C81.9593 25.8539 82.2797 26.7466 82.6918 27.3647C83.1267 27.9827 83.6761 28.3947 84.3399 28.6008C85.0037 28.8068 85.7934 28.9098 86.7091 28.9098ZM101.569 32V7.9993H114.548V11.4672L103.698 11.3642L105.518 9.57874L105.38 18.8151L103.629 18.197H113.449V21.5619H103.629L105.415 20.8409L105.552 32H101.569ZM122.466 32L122.534 11.3642L115.839 11.4672V7.9993H133.178V11.4672L126.38 11.3642L126.483 32H122.466Z" fill="#FF5C00"/>
</svg>
