<svg width="20" height="12" viewBox="0 0 20 12" fill="none" xmlns="http://www.w3.org/2000/svg">
<path d="M17.6954 0.527344C18.825 0.527344 19.415 1.83463 18.7336 2.6792L18.6328 2.79057L10.6777 10.7457C10.4494 10.9739 10.1456 11.1111 9.82343 11.1313C9.50121 11.1516 9.18268 11.0536 8.92758 10.8557L8.80295 10.7457L0.847858 2.79057L0.737813 2.66594L0.666217 2.56385L0.594621 2.43656L0.572082 2.38884L0.536284 2.3L0.493857 2.15681L0.480598 2.08654L0.46734 2.00699L0.462036 1.93142V1.77497L0.468666 1.69807L0.480598 1.61852L0.493857 1.54957L0.536284 1.40638L0.572082 1.31755L0.664891 1.14254L0.751071 1.02321L0.847858 0.915818L0.972488 0.805772L1.07458 0.734176L1.20186 0.662581L1.24959 0.640041L1.33842 0.604242L1.48161 0.561816L1.55188 0.548557L1.63143 0.535298L1.70701 0.529995L17.6954 0.527344Z" fill="white"/>
</svg>
